<svg width="689.000000" height="118.000000" viewBox="0 0 689 118" fill="none" xmlns="http://www.w3.org/2000/svg" xmlns:xlink="http://www.w3.org/1999/xlink">
	<desc>
			Created with Pixso.
	</desc>
	<defs>
		<clipPath id="clip0_1276">
			<rect id="Group 13" width="689.000000" height="118.000000" fill="white" fill-opacity="0"/>
		</clipPath>
		<linearGradient id="paint_linear_0_1278_0" x1="0.000000" y1="0.000000" x2="0.000000" y2="118.000000" gradientUnits="userSpaceOnUse">
			<stop stop-color="#FEFCF7" stop-opacity="0.000000"/>
			<stop offset="1.000000" stop-color="#FEFCF7"/>
		</linearGradient>
	</defs>
	<g opacity="0.503176">
		<rect id="Group 13" width="689.000000" height="118.000000" fill="#FFFFFF" fill-opacity="0"/>
		<g clip-path="url(#clip0_1276)">
			<path id="our collection" d="M31.4911 49.992C36.9311 49.992 41.6831 51.032 45.7471 53.112C49.8111 55.16 52.9631 58.04 55.2031 61.752C57.4751 65.464 58.6111 69.784 58.6111 74.712C58.6111 79.256 57.4271 83.368 55.0591 87.048C52.6911 90.728 49.4111 93.656 45.2191 95.832C41.0591 97.976 36.2271 99.048 30.7231 99.048C25.2831 99.048 20.5311 98.008 16.4671 95.928C12.4031 93.816 9.23513 90.904 6.96313 87.192C4.72312 83.48 3.60313 79.192 3.60313 74.328C3.60313 69.688 4.78713 65.544 7.15513 61.896C9.52313 58.216 12.7871 55.32 16.9471 53.208C21.1391 51.064 25.9871 49.992 31.4911 49.992ZM34.9951 92.088C36.2111 91.8 37.1391 90.952 37.7791 89.544C38.4191 88.136 38.7071 86.088 38.6431 83.4C38.5791 80.712 38.0991 77.304 37.2031 73.176C36.3711 69.208 35.4271 65.976 34.3711 63.48C33.3471 60.984 32.2271 59.192 31.0111 58.104C29.7951 57.016 28.5311 56.632 27.2191 56.952C26.0031 57.24 25.0751 58.088 24.4351 59.496C23.7951 60.904 23.5071 62.952 23.5711 65.64C23.6671 68.296 24.1471 71.704 25.0111 75.864C25.8431 79.8 26.7871 83.032 27.8431 85.56C28.8991 88.056 30.0191 89.848 31.2031 90.936C32.4191 91.992 33.6831 92.376 34.9951 92.088ZM98.9836 87.864L98.9836 87.24L98.2636 87.24L98.2636 65.064C98.2636 64.04 98.1196 63.32 97.8316 62.904C97.5756 62.456 97.1756 62.152 96.6316 61.992L95.5756 61.656C94.9036 61.432 94.4076 61.112 94.0876 60.696C93.7996 60.28 93.6556 59.752 93.6556 59.112C93.6556 58.344 93.8636 57.736 94.2796 57.288C94.6956 56.84 95.4796 56.392 96.6316 55.944L107.288 51.816C108.92 51.176 110.232 50.712 111.224 50.424C112.248 50.136 113.24 49.992 114.2 49.992C115.64 49.992 116.728 50.408 117.464 51.24C118.232 52.04 118.616 53.064 118.616 54.312L118.616 87.624C118.616 88.904 118.712 89.816 118.904 90.36C119.096 90.872 119.432 91.24 119.912 91.464L120.968 91.944C121.704 92.264 122.232 92.664 122.552 93.144C122.872 93.624 123.032 94.184 123.032 94.824C123.032 95.72 122.744 96.424 122.168 96.936C121.592 97.448 120.664 97.704 119.384 97.704L107.624 97.704C105.352 97.704 103.336 96.728 101.576 94.776C99.8476 92.824 98.9836 90.52 98.9836 87.864ZM67.2556 83.688L67.2556 65.064C67.2556 64.04 67.1116 63.32 66.8236 62.904C66.5676 62.456 66.1676 62.152 65.6236 61.992L64.5676 61.656C63.8956 61.432 63.3996 61.112 63.0796 60.696C62.7916 60.28 62.6476 59.752 62.6476 59.112C62.6476 58.344 62.8556 57.736 63.2716 57.288C63.6876 56.84 64.4716 56.392 65.6236 55.944L76.2796 51.816C78.0076 51.144 79.3676 50.68 80.3596 50.424C81.3516 50.136 82.2316 49.992 82.9996 49.992C84.5356 49.992 85.6876 50.408 86.4556 51.24C87.2236 52.04 87.6076 53.064 87.6076 54.312L87.6076 80.808C87.6076 82.856 88.0716 84.392 88.9996 85.416C89.9596 86.44 91.2876 86.952 92.9836 86.952C94.0396 86.952 95.1436 86.744 96.2956 86.328C97.4476 85.912 98.4716 85.304 99.3676 84.504L101.048 83.016L103.928 86.088L102.488 87.432C97.9756 91.752 94.0556 94.776 90.7276 96.504C87.3996 98.2 84.3436 99.048 81.5596 99.048C77.3036 99.048 73.8476 97.624 71.1916 94.776C68.5676 91.928 67.2556 88.232 67.2556 83.688ZM151.477 71.496C151.477 66.6 152.117 62.568 153.397 59.4C154.677 56.2 156.373 53.832 158.485 52.296C160.629 50.76 162.965 49.992 165.493 49.992C168.885 49.992 171.477 51.016 173.269 53.064C175.093 55.08 176.005 58.136 176.005 62.232C176.005 66.424 175.157 69.512 173.461 71.496C171.797 73.48 169.621 74.472 166.933 74.472C164.213 74.472 162.165 73.784 160.789 72.408C159.445 71 158.773 69.064 158.773 66.6L158.773 64.584C158.741 63.752 158.549 63.128 158.197 62.712C157.877 62.264 157.365 62.04 156.661 62.04C156.021 62.04 155.445 62.328 154.933 62.904C154.453 63.448 154.069 64.36 153.781 65.64C153.493 66.888 153.349 68.584 153.349 70.728L151.477 71.496ZM152.005 54.312L153.349 64.344L153.349 87.624C153.349 88.744 153.509 89.544 153.829 90.024C154.149 90.472 154.885 90.808 156.037 91.032L159.685 91.752C160.645 91.944 161.349 92.28 161.797 92.76C162.245 93.24 162.469 93.912 162.469 94.776C162.469 95.704 162.149 96.424 161.509 96.936C160.901 97.448 159.989 97.704 158.773 97.704L132.229 97.704C130.949 97.704 130.021 97.448 129.445 96.936C128.869 96.424 128.581 95.72 128.581 94.824C128.581 94.184 128.741 93.624 129.061 93.144C129.381 92.664 129.909 92.264 130.645 91.944L131.701 91.464C132.181 91.24 132.517 90.872 132.709 90.36C132.901 89.816 132.997 88.904 132.997 87.624L132.997 65.256C132.997 64.232 132.853 63.512 132.565 63.096C132.309 62.648 131.909 62.344 131.365 62.184L130.309 61.848C129.637 61.624 129.141 61.304 128.821 60.888C128.533 60.472 128.389 59.944 128.389 59.304C128.389 58.536 128.597 57.928 129.013 57.48C129.461 57 130.245 56.552 131.365 56.136L141.685 52.104C143.957 51.208 145.589 50.632 146.581 50.376C147.573 50.12 148.341 49.992 148.885 49.992C149.781 49.992 150.469 50.328 150.949 51C151.429 51.64 151.781 52.744 152.005 54.312ZM247.403 64.824C247.403 67.256 246.475 69.32 244.619 71.016C242.795 72.712 240.347 73.56 237.275 73.56C234.299 73.56 232.059 72.776 230.555 71.208C229.083 69.608 228.347 67.576 228.347 65.112L228.347 63.576C228.347 61.496 227.915 59.864 227.051 58.68C226.187 57.464 225.051 56.856 223.643 56.856C222.523 56.856 221.467 57.272 220.475 58.104C219.515 58.936 218.731 60.216 218.123 61.944C217.515 63.64 217.211 65.8 217.211 68.424C217.211 72.136 217.835 75.24 219.083 77.736C220.363 80.232 222.107 82.12 224.315 83.4C226.523 84.648 229.035 85.272 231.851 85.272C233.899 85.272 235.739 85.032 237.371 84.552C239.035 84.04 240.683 83.064 242.315 81.624C243.243 80.792 243.947 80.232 244.427 79.944C244.907 79.656 245.371 79.512 245.819 79.512C246.459 79.512 246.923 79.832 247.211 80.472C247.531 81.112 247.691 81.896 247.691 82.824C247.691 85.672 246.731 88.344 244.811 90.84C242.923 93.304 240.283 95.288 236.891 96.792C233.499 98.296 229.563 99.048 225.083 99.048C220.187 99.048 215.787 98.088 211.883 96.168C208.011 94.216 204.939 91.512 202.667 88.056C200.395 84.568 199.259 80.504 199.259 75.864C199.259 70.904 200.347 66.472 202.523 62.568C204.731 58.664 207.835 55.592 211.835 53.352C215.867 51.112 220.619 49.992 226.091 49.992C230.475 49.992 234.251 50.664 237.419 52.008C240.619 53.32 243.083 55.096 244.811 57.336C246.539 59.576 247.403 62.072 247.403 64.824ZM280.679 49.992C286.119 49.992 290.871 51.032 294.935 53.112C298.999 55.16 302.151 58.04 304.391 61.752C306.663 65.464 307.799 69.784 307.799 74.712C307.799 79.256 306.615 83.368 304.247 87.048C301.879 90.728 298.599 93.656 294.407 95.832C290.247 97.976 285.415 99.048 279.911 99.048C274.471 99.048 269.719 98.008 265.655 95.928C261.591 93.816 258.423 90.904 256.151 87.192C253.911 83.48 252.791 79.192 252.791 74.328C252.791 69.688 253.975 65.544 256.343 61.896C258.711 58.216 261.975 55.32 266.135 53.208C270.327 51.064 275.175 49.992 280.679 49.992ZM284.183 92.088C285.399 91.8 286.327 90.952 286.967 89.544C287.607 88.136 287.895 86.088 287.831 83.4C287.767 80.712 287.287 77.304 286.391 73.176C285.559 69.208 284.615 65.976 283.559 63.48C282.535 60.984 281.415 59.192 280.199 58.104C278.983 57.016 277.719 56.632 276.407 56.952C275.191 57.24 274.263 58.088 273.623 59.496C272.983 60.904 272.695 62.952 272.759 65.64C272.855 68.296 273.335 71.704 274.199 75.864C275.031 79.8 275.975 83.032 277.031 85.56C278.087 88.056 279.207 89.848 280.391 90.936C281.607 91.992 282.871 92.376 284.183 92.088ZM337.755 29.544L337.755 87.624C337.755 88.904 337.851 89.816 338.043 90.36C338.235 90.872 338.571 91.24 339.051 91.464L340.107 91.944C340.843 92.264 341.371 92.664 341.691 93.144C342.011 93.624 342.171 94.184 342.171 94.824C342.171 95.72 341.883 96.424 341.307 96.936C340.731 97.448 339.803 97.704 338.523 97.704L316.635 97.704C315.355 97.704 314.427 97.448 313.851 96.936C313.275 96.424 312.987 95.72 312.987 94.824C312.987 94.184 313.147 93.624 313.467 93.144C313.787 92.664 314.315 92.264 315.051 91.944L316.107 91.464C316.587 91.24 316.923 90.872 317.115 90.36C317.307 89.816 317.403 88.904 317.403 87.624L317.403 40.296C317.403 39.272 317.259 38.552 316.971 38.136C316.715 37.688 316.315 37.384 315.771 37.224L314.715 36.888C314.043 36.664 313.547 36.344 313.227 35.928C312.939 35.512 312.795 34.984 312.795 34.344C312.795 33.576 313.003 32.968 313.419 32.52C313.835 32.072 314.619 31.624 315.771 31.176L326.427 27.048C328.155 26.376 329.515 25.912 330.507 25.656C331.499 25.368 332.379 25.224 333.147 25.224C334.683 25.224 335.835 25.64 336.603 26.472C337.371 27.272 337.755 28.296 337.755 29.544ZM371.505 29.544L371.505 87.624C371.505 88.904 371.601 89.816 371.793 90.36C371.985 90.872 372.321 91.24 372.801 91.464L373.857 91.944C374.593 92.264 375.121 92.664 375.441 93.144C375.761 93.624 375.921 94.184 375.921 94.824C375.921 95.72 375.633 96.424 375.057 96.936C374.481 97.448 373.553 97.704 372.273 97.704L350.385 97.704C349.105 97.704 348.177 97.448 347.601 96.936C347.025 96.424 346.737 95.72 346.737 94.824C346.737 94.184 346.897 93.624 347.217 93.144C347.537 92.664 348.065 92.264 348.801 91.944L349.857 91.464C350.337 91.24 350.673 90.872 350.865 90.36C351.057 89.816 351.153 88.904 351.153 87.624L351.153 40.296C351.153 39.272 351.009 38.552 350.721 38.136C350.465 37.688 350.065 37.384 349.521 37.224L348.465 36.888C347.793 36.664 347.297 36.344 346.977 35.928C346.689 35.512 346.545 34.984 346.545 34.344C346.545 33.576 346.753 32.968 347.169 32.52C347.585 32.072 348.369 31.624 349.521 31.176L360.177 27.048C361.905 26.376 363.265 25.912 364.257 25.656C365.249 25.368 366.129 25.224 366.897 25.224C368.433 25.224 369.585 25.64 370.353 26.472C371.121 27.272 371.505 28.296 371.505 29.544ZM429.111 68.52C429.111 70.76 428.503 72.504 427.287 73.752C426.071 74.968 424.327 75.576 422.055 75.576L393.591 75.576L393.591 70.584L406.407 70.584C408.167 70.584 409.047 69.752 409.047 68.088C409.047 64.056 408.583 61.176 407.655 59.448C406.727 57.72 405.495 56.856 403.959 56.856C402.839 56.856 401.831 57.272 400.935 58.104C400.039 58.936 399.319 60.216 398.775 61.944C398.263 63.64 398.007 65.8 398.007 68.424C398.007 74.248 399.319 78.52 401.943 81.24C404.567 83.928 408.151 85.272 412.695 85.272C414.807 85.272 416.727 85.032 418.455 84.552C420.183 84.072 421.879 83.096 423.543 81.624C424.471 80.792 425.175 80.232 425.655 79.944C426.135 79.656 426.599 79.512 427.047 79.512C427.687 79.512 428.151 79.832 428.439 80.472C428.759 81.112 428.919 81.896 428.919 82.824C428.919 85.672 427.943 88.344 425.991 90.84C424.071 93.304 421.383 95.288 417.927 96.792C414.503 98.296 410.503 99.048 405.927 99.048C401.031 99.048 396.631 98.088 392.727 96.168C388.823 94.216 385.735 91.512 383.463 88.056C381.191 84.568 380.055 80.504 380.055 75.864C380.055 70.648 381.095 66.104 383.175 62.232C385.255 58.36 388.279 55.352 392.247 53.208C396.247 51.064 401.063 49.992 406.695 49.992C411.655 49.992 415.799 50.792 419.127 52.392C422.455 53.992 424.951 56.184 426.615 58.968C428.279 61.752 429.111 64.936 429.111 68.52ZM481.966 64.824C481.966 67.256 481.038 69.32 479.182 71.016C477.358 72.712 474.91 73.56 471.838 73.56C468.862 73.56 466.622 72.776 465.118 71.208C463.646 69.608 462.91 67.576 462.91 65.112L462.91 63.576C462.91 61.496 462.478 59.864 461.614 58.68C460.75 57.464 459.614 56.856 458.206 56.856C457.086 56.856 456.03 57.272 455.038 58.104C454.078 58.936 453.294 60.216 452.686 61.944C452.078 63.64 451.774 65.8 451.774 68.424C451.774 72.136 452.398 75.24 453.646 77.736C454.926 80.232 456.67 82.12 458.878 83.4C461.086 84.648 463.598 85.272 466.414 85.272C468.462 85.272 470.302 85.032 471.934 84.552C473.598 84.04 475.246 83.064 476.878 81.624C477.806 80.792 478.51 80.232 478.99 79.944C479.47 79.656 479.934 79.512 480.382 79.512C481.022 79.512 481.486 79.832 481.774 80.472C482.094 81.112 482.254 81.896 482.254 82.824C482.254 85.672 481.294 88.344 479.374 90.84C477.486 93.304 474.846 95.288 471.454 96.792C468.062 98.296 464.126 99.048 459.646 99.048C454.75 99.048 450.35 98.088 446.446 96.168C442.574 94.216 439.502 91.512 437.23 88.056C434.958 84.568 433.822 80.504 433.822 75.864C433.822 70.904 434.91 66.472 437.086 62.568C439.294 58.664 442.398 55.592 446.398 53.352C450.43 51.112 455.182 49.992 460.654 49.992C465.038 49.992 468.814 50.664 471.982 52.008C475.182 53.32 477.646 55.096 479.374 57.336C481.102 59.576 481.966 62.072 481.966 64.824ZM489.561 57.672L488.025 57.048C487.321 56.76 486.793 56.392 486.441 55.944C486.089 55.496 485.913 54.952 485.913 54.312C485.913 53.384 486.217 52.68 486.825 52.2C487.465 51.688 488.281 51.432 489.273 51.432L491.913 51.432C492.521 51.432 493.081 51.272 493.593 50.952C494.137 50.632 494.825 50.056 495.657 49.224L503.481 41.304C504.537 40.248 505.513 39.464 506.409 38.952C507.337 38.44 508.217 38.184 509.049 38.184C509.977 38.184 510.697 38.488 511.209 39.096C511.753 39.704 512.025 40.584 512.025 41.736L512.025 80.232C512.025 82.568 512.425 84.344 513.225 85.56C514.025 86.776 515.177 87.384 516.681 87.384C517.897 87.384 518.825 87.08 519.465 86.472C520.137 85.864 520.665 85.176 521.049 84.408C521.465 83.608 521.897 82.904 522.345 82.296C522.793 81.688 523.401 81.384 524.169 81.384C524.809 81.384 525.321 81.608 525.705 82.056C526.089 82.504 526.281 83.272 526.281 84.36C526.281 87.08 525.497 89.56 523.929 91.8C522.361 94.008 520.201 95.768 517.449 97.08C514.697 98.392 511.561 99.048 508.041 99.048C502.825 99.048 498.793 97.8 495.945 95.304C493.097 92.776 491.673 88.968 491.673 83.88L491.673 60.792C491.673 59.864 491.497 59.192 491.145 58.776C490.825 58.36 490.297 57.992 489.561 57.672ZM505.017 58.248L505.017 51.432L522.537 51.432C523.529 51.432 524.313 51.656 524.889 52.104C525.497 52.52 525.801 53.128 525.801 53.928C525.801 55.144 525.209 56.168 524.025 57C522.841 57.832 520.889 58.248 518.169 58.248L505.017 58.248ZM554.974 54.312L554.974 87.624C554.974 88.904 555.07 89.816 555.262 90.36C555.454 90.872 555.79 91.24 556.27 91.464L557.326 91.944C558.062 92.264 558.59 92.664 558.91 93.144C559.23 93.624 559.39 94.184 559.39 94.824C559.39 95.72 559.102 96.424 558.526 96.936C557.95 97.448 557.022 97.704 555.742 97.704L533.854 97.704C532.574 97.704 531.646 97.448 531.07 96.936C530.494 96.424 530.206 95.72 530.206 94.824C530.206 94.184 530.366 93.624 530.686 93.144C531.006 92.664 531.534 92.264 532.27 91.944L533.326 91.464C533.806 91.24 534.142 90.872 534.334 90.36C534.526 89.816 534.622 88.904 534.622 87.624L534.622 65.064C534.622 64.04 534.478 63.32 534.19 62.904C533.934 62.456 533.534 62.152 532.99 61.992L531.934 61.656C531.262 61.432 530.766 61.112 530.446 60.696C530.158 60.28 530.014 59.752 530.014 59.112C530.014 58.344 530.222 57.736 530.638 57.288C531.054 56.84 531.838 56.392 532.99 55.944L543.646 51.816C545.374 51.144 546.734 50.68 547.726 50.424C548.718 50.136 549.598 49.992 550.366 49.992C551.902 49.992 553.054 50.408 553.822 51.24C554.59 52.04 554.974 53.064 554.974 54.312ZM543.742 45.768C540.158 45.768 537.326 44.936 535.246 43.272C533.166 41.608 532.126 39.336 532.126 36.456C532.126 33.608 533.166 31.368 535.246 29.736C537.326 28.104 540.158 27.288 543.742 27.288C547.326 27.288 550.158 28.104 552.238 29.736C554.318 31.368 555.358 33.608 555.358 36.456C555.358 39.336 554.318 41.608 552.238 43.272C550.158 44.936 547.326 45.768 543.742 45.768ZM591.46 49.992C596.9 49.992 601.652 51.032 605.716 53.112C609.78 55.16 612.932 58.04 615.172 61.752C617.444 65.464 618.58 69.784 618.58 74.712C618.58 79.256 617.396 83.368 615.028 87.048C612.66 90.728 609.38 93.656 605.188 95.832C601.028 97.976 596.196 99.048 590.692 99.048C585.252 99.048 580.5 98.008 576.436 95.928C572.372 93.816 569.204 90.904 566.932 87.192C564.692 83.48 563.572 79.192 563.572 74.328C563.572 69.688 564.756 65.544 567.124 61.896C569.492 58.216 572.756 55.32 576.916 53.208C581.108 51.064 585.956 49.992 591.46 49.992ZM594.964 92.088C596.18 91.8 597.108 90.952 597.748 89.544C598.388 88.136 598.676 86.088 598.612 83.4C598.548 80.712 598.068 77.304 597.172 73.176C596.34 69.208 595.396 65.976 594.34 63.48C593.316 60.984 592.196 59.192 590.98 58.104C589.764 57.016 588.5 56.632 587.188 56.952C585.972 57.24 585.044 58.088 584.404 59.496C583.764 60.904 583.476 62.952 583.54 65.64C583.636 68.296 584.116 71.704 584.98 75.864C585.812 79.8 586.756 83.032 587.812 85.56C588.868 88.056 589.988 89.848 591.172 90.936C592.388 91.992 593.652 92.376 594.964 92.088ZM648.536 54.312L648.536 87.624C648.536 88.904 648.632 89.8 648.824 90.312C649.016 90.824 649.352 91.208 649.832 91.464L650.792 91.992C651.848 92.6 652.376 93.48 652.376 94.632C652.376 96.68 651.144 97.704 648.68 97.704L627.416 97.704C626.136 97.704 625.208 97.448 624.632 96.936C624.056 96.424 623.768 95.72 623.768 94.824C623.768 94.184 623.928 93.624 624.248 93.144C624.568 92.664 625.096 92.264 625.832 91.944L626.888 91.464C627.368 91.24 627.704 90.872 627.896 90.36C628.088 89.816 628.184 88.904 628.184 87.624L628.184 65.064C628.184 64.04 628.04 63.32 627.752 62.904C627.496 62.456 627.096 62.152 626.552 61.992L625.496 61.656C624.824 61.432 624.328 61.112 624.008 60.696C623.72 60.28 623.576 59.752 623.576 59.112C623.576 58.344 623.784 57.736 624.2 57.288C624.616 56.84 625.4 56.392 626.552 55.944L637.208 51.816C638.84 51.176 640.152 50.712 641.144 50.424C642.168 50.136 643.16 49.992 644.12 49.992C645.56 49.992 646.648 50.408 647.384 51.24C648.152 52.04 648.536 53.064 648.536 54.312ZM646.808 66.024L643.928 62.952L645.368 61.608C649.88 57.288 653.8 54.28 657.128 52.584C660.456 50.856 663.512 49.992 666.296 49.992C670.584 49.992 674.04 51.416 676.664 54.264C679.288 57.08 680.6 60.776 680.6 65.352L680.6 87.624C680.6 88.904 680.696 89.816 680.888 90.36C681.08 90.872 681.416 91.24 681.896 91.464L682.952 91.944C683.688 92.264 684.216 92.664 684.536 93.144C684.856 93.624 685.016 94.184 685.016 94.824C685.016 95.72 684.728 96.424 684.152 96.936C683.576 97.448 682.648 97.704 681.368 97.704L660.104 97.704C657.64 97.704 656.408 96.68 656.408 94.632C656.408 93.48 656.936 92.6 657.992 91.992L658.952 91.464C659.432 91.208 659.768 90.824 659.96 90.312C660.152 89.8 660.248 88.904 660.248 87.624L660.248 68.232C660.248 66.184 659.768 64.648 658.808 63.624C657.88 62.6 656.568 62.088 654.872 62.088C653.816 62.088 652.712 62.296 651.56 62.712C650.408 63.128 649.384 63.736 648.488 64.536L646.808 66.024Z" fill="#83888F" fill-opacity="1.000000" fill-rule="evenodd"/>
			<rect id="Rectangle" width="689.000000" height="118.000000" fill="url(#paint_linear_0_1278_0)" fill-opacity="1.000000"/>
			<rect id="Rectangle" width="689.000000" height="118.000000" stroke="#979797" stroke-opacity="0" stroke-width="0.000000"/>
		</g>
	</g>
</svg>
