<svg width="24.000000" height="19.503906" viewBox="0 0 24 19.5039" fill="none" xmlns="http://www.w3.org/2000/svg" xmlns:xlink="http://www.w3.org/1999/xlink">
	<desc>
			Created with Pixso.
	</desc>
	<defs/>
	<path id="Path" d="M24 2.30859C23.117 2.70117 22.168 2.96484 21.172 3.08398C22.189 2.47461 22.97 1.50977 23.337 0.359375C22.386 0.923828 21.332 1.33398 20.21 1.55469C19.313 0.597656 18.032 0 16.616 0C13.437 0 11.101 2.9668 11.819 6.04492C7.72803 5.83984 4.09998 3.88086 1.67102 0.900391C0.380981 3.11328 1.00201 6.00977 3.19397 7.47461C2.388 7.44922 1.62799 7.22852 0.965027 6.85938C0.911011 9.14062 2.54602 11.2734 4.914 11.748C4.22101 11.9375 3.46198 11.9805 2.69 11.832C3.31598 13.7891 5.13397 15.2129 7.28998 15.252C5.21997 16.875 2.612 17.5996 0 17.293C2.17902 18.6895 4.76801 19.5039 7.54797 19.5039C16.69 19.5039 21.855 11.7832 21.543 4.85742C22.505 4.16211 23.34 3.29688 24 2.30859Z" fill="#FEFCF7" fill-opacity="1.000000" fill-rule="nonzero"/>
</svg>
