<svg width="24.000000" height="24.000000" viewBox="0 0 24 24" fill="none" xmlns="http://www.w3.org/2000/svg" xmlns:xlink="http://www.w3.org/1999/xlink">
	<desc>
			Created with Pixso.
	</desc>
	<defs/>
	<path id="Path" d="M22.675 0L1.32501 0C0.593018 0 0 0.59375 0 1.32422L0 22.6758C0 23.4062 0.593018 24 1.32501 24L12.82 24L12.82 14.7051L9.69202 14.7051L9.69202 11.084L12.82 11.084L12.82 8.41211C12.82 5.3125 14.713 3.625 17.479 3.625C18.804 3.625 19.942 3.72461 20.274 3.76758L20.274 7.00781L18.356 7.00977C16.852 7.00977 16.561 7.72461 16.561 8.77148L16.561 11.0859L20.148 11.0859L19.681 14.707L16.561 14.707L16.561 24L22.677 24C23.407 24 24 23.4062 24 22.6758L24 1.32422C24 0.59375 23.407 0 22.675 0Z" fill="#FEFCF7" fill-opacity="1.000000" fill-rule="nonzero"/>
</svg>
