<svg width="24.000000" height="24.000000" viewBox="0 0 24 24" fill="none" xmlns="http://www.w3.org/2000/svg" xmlns:xlink="http://www.w3.org/1999/xlink">
	<desc>
			Created with Pixso.
	</desc>
	<defs/>
	<path id="Shape" d="M12 0C8.74103 0 8.33301 0.0136719 7.05298 0.0722656C2.69501 0.271484 0.27301 2.68945 0.072998 7.05273C0.0139771 8.33203 0 8.74023 0 12C0 15.2598 0.0139771 15.668 0.0720215 16.9473C0.271973 21.3066 2.69 23.7285 7.052 23.9277C8.33301 23.9863 8.74103 24 12 24C15.259 24 15.668 23.9863 16.948 23.9277C21.302 23.7285 23.73 21.3105 23.927 16.9473C23.986 15.668 24 15.2598 24 12C24 8.74023 23.986 8.33203 23.928 7.05273C23.732 2.69922 21.311 0.273438 16.949 0.0722656C15.668 0.0136719 15.259 0 12 0ZM16.85 2.23242C15.584 2.17578 15.204 2.16211 12 2.16211C8.79602 2.16211 8.41699 2.17578 7.151 2.23242C3.896 2.38086 2.38098 3.92383 2.23199 7.15039C2.17499 8.41797 2.16199 8.79688 2.16199 12C2.16199 15.2051 2.17401 15.584 2.23199 16.8496C2.38 20.0703 3.89099 21.6191 7.151 21.7695C8.41602 21.8262 8.79602 21.8398 12 21.8398C15.206 21.8398 15.584 21.8262 16.85 21.7695C20.105 21.6211 21.62 20.0742 21.769 16.8496C21.826 15.5859 21.838 15.2051 21.838 12.002C21.838 8.79688 21.827 8.41797 21.769 7.15234C21.621 3.92383 20.102 2.38086 16.85 2.23242ZM16.965 5.5957C16.965 4.80078 17.61 4.1543 18.406 4.1543C19.201 4.1543 19.845 4.80078 19.845 5.5957C19.845 6.39062 19.201 7.03516 18.406 7.03516C17.61 7.03516 16.965 6.39062 16.965 5.5957ZM5.83801 12C5.83801 8.59766 8.59698 5.83789 12 5.83789C15.403 5.83789 18.162 8.59766 18.162 12C18.162 15.4043 15.403 18.1621 12 18.1621C8.59698 18.1621 5.83801 15.4023 5.83801 12ZM12 16C9.79102 16 8 14.2109 8 12C8 9.79102 9.79102 8 12 8C14.209 8 16 9.79102 16 12C16 14.2109 14.209 16 12 16Z" clip-rule="evenodd" fill="#FEFCF7" fill-opacity="1.000000" fill-rule="evenodd"/>
</svg>
