<svg width="236.000000" height="26.000000" viewBox="0 0 236 26" fill="none" xmlns="http://www.w3.org/2000/svg" xmlns:xlink="http://www.w3.org/1999/xlink">
	<desc>
			Created with Pixso.
	</desc>
	<defs/>
	<path id="coffeeroasters" d="M43.5591 23.6836C42.5812 24.1582 41.4403 24.3945 40.1364 24.3945Q38.1965 24.3945 36.636 23.625L36.635 23.625Q36.5309 23.5732 36.4285 23.5186Q35.7607 23.1621 35.2081 22.6738Q34.4051 21.9658 33.8451 20.9814Q32.8998 19.3203 32.8998 16.9404Q32.8998 14.8135 33.7449 13.1045Q33.8127 12.9668 33.8859 12.833Q34.399 11.8906 35.1218 11.1553Q35.7879 10.4766 36.6322 9.97363Q36.7159 9.92285 36.801 9.87598Q38.5041 8.92383 40.7394 8.92383Q42.7442 8.92383 44.1214 9.51855Q45.4987 10.1133 46.2239 11.1299Q46.575 11.6221 46.7562 12.1709Q46.9492 12.7549 46.9492 13.4033Q46.9492 14.5117 46.4167 15.2188L46.4167 15.2188Q46.3139 15.3555 46.1913 15.4775Q46.0582 15.6094 45.9081 15.7188Q45.2043 16.2295 44.1296 16.2295Q42.9856 16.2295 42.3133 15.666Q42.2001 15.5713 42.1004 15.4609C41.6386 14.9482 41.4077 14.2461 41.4077 13.3535L41.4077 12.2959Q41.4077 11.4854 41.1143 11.0723C40.9187 10.7969 40.6417 10.6592 40.2831 10.6592Q40.1321 10.6592 39.9896 10.6934Q39.624 10.7822 39.3133 11.0977C39.0254 11.3896 38.8026 11.8271 38.6451 12.4111Q38.4088 13.2871 38.4088 14.5762C38.4088 15.8105 38.5908 16.8467 38.9547 17.6836C39.3187 18.5215 39.8159 19.1494 40.446 19.5684Q40.7485 19.7695 41.0777 19.9062Q41.7773 20.1963 42.5975 20.1963C43.4016 20.1963 44.0753 20.0781 44.6185 19.8408C45.1618 19.6045 45.5801 19.2051 45.8735 18.6426C46.0365 18.4883 46.1642 18.3896 46.2565 18.3447C46.3489 18.3008 46.4385 18.2793 46.5255 18.2793C46.6342 18.29 46.7238 18.3428 46.7944 18.4365C46.8556 18.5176 46.8862 18.6377 46.8862 18.7979C46.8862 18.8223 46.8855 18.8477 46.884 18.874C46.7971 19.9541 46.4657 20.9072 45.8898 21.7334C45.314 22.5596 44.537 23.21 43.5591 23.6836ZM60.1267 23.3535C58.9043 24.0254 57.4836 24.3613 55.8646 24.3613Q53.5013 24.3613 51.7166 23.3779Q50.7104 22.8242 49.9555 22.0303Q49.3714 21.416 48.9377 20.6592Q48.9053 20.6025 48.8741 20.5459Q47.9435 18.8496 47.9435 16.6426Q47.9435 15.0137 48.525 13.6289Q48.7223 13.1592 48.9866 12.7168C49.682 11.5547 50.6436 10.6318 51.8715 9.94824Q51.9116 9.92578 51.952 9.9043Q53.7654 8.92383 56.1091 8.92383Q58.4887 8.92383 60.2653 9.91504C61.4496 10.5762 62.3732 11.4912 63.036 12.6592C63.6989 13.8271 64.0303 15.1768 64.0303 16.709C64.0303 18.1631 63.6852 19.4668 62.9953 20.6182C62.3053 21.7695 61.3491 22.6816 60.1267 23.3535ZM57.1033 22.6426C56.7665 22.709 56.4378 22.5596 56.1172 22.1963C55.7967 21.833 55.4924 21.2217 55.2045 20.3613Q54.7726 19.0723 54.3814 16.9736C54.1315 15.5742 53.9903 14.4219 53.9576 13.5186C53.9522 13.3682 53.9495 13.2236 53.9495 13.085Q53.9495 12.0479 54.1533 11.4688C54.3162 11.0059 54.5662 10.7363 54.903 10.6592C55.2398 10.5928 55.5685 10.7422 55.889 11.1055C56.2096 11.4688 56.5165 12.0811 56.8099 12.9404C57.1033 13.7998 57.3804 14.9287 57.6412 16.3291C57.902 17.7285 58.0459 18.8828 58.0731 19.791C58.0768 19.918 58.0787 20.04 58.0787 20.1572C58.0787 20.8867 58.0062 21.4512 57.8612 21.8496C57.6928 22.3125 57.4401 22.5762 57.1033 22.6426ZM75.6512 23.3037C75.6512 23.8105 75.3959 24.0645 74.8852 24.0645L65.8883 24.0645C65.671 24.0645 65.4944 24.001 65.3586 23.874C65.2228 23.7471 65.1548 23.5684 65.1548 23.3369C65.1548 23.1387 65.201 22.9785 65.2934 22.8574C65.3857 22.7363 65.5297 22.6367 65.7253 22.5596L66.4261 22.3447Q66.5557 22.3037 66.657 22.2266Q66.7598 22.1475 66.8336 22.0312C66.9314 21.877 66.9803 21.6562 66.9803 21.3701L66.9803 11.8164C66.9803 11.6621 66.9423 11.5322 66.8662 11.4277C66.7902 11.3232 66.6489 11.2266 66.4424 11.1387L65.4971 10.8242C65.2472 10.7031 65.0679 10.5742 64.9593 10.4365Q64.9229 10.3896 64.8946 10.3389Q64.7963 10.1631 64.7963 9.93164C64.7963 9.7334 64.8642 9.57129 65 9.44434L65.0533 9.39941C65.1835 9.30273 65.3531 9.25391 65.5623 9.25391L66.9926 9.25391L66.9813 9.15723C66.9507 8.96484 66.8744 8.7793 66.7521 8.60156C66.5891 8.36426 66.4044 8.09766 66.198 7.7998Q65.8883 7.35352 65.6438 6.7334Q65.3994 6.11328 65.3994 5.20508Q65.3994 3.80371 66.0131 2.7666Q66.3482 2.2002 66.8662 1.74219C67.8441 0.876953 69.235 0.444336 71.0387 0.444336C72.2013 0.444336 73.1656 0.631836 73.9317 1.00586C74.6978 1.38086 75.2709 1.87988 75.6512 2.50195C76.0315 3.125 76.2217 3.80566 76.2217 4.54395Q76.2217 5.80273 75.5922 6.45508Q75.5692 6.47949 75.5453 6.50195C75.0944 6.9375 74.5157 7.15527 73.8094 7.15527C73.0271 7.15527 72.3969 6.90137 71.9188 6.39453C71.4407 5.8877 71.2017 5.21582 71.2017 4.37793L71.2017 2.90723Q71.2017 2.3291 70.9735 2.05566C70.8214 1.87402 70.5878 1.7832 70.2726 1.7832C69.8706 1.7832 69.5663 1.9209 69.3599 2.19629C69.1534 2.47168 69.0502 2.86816 69.0502 3.38672C69.0502 3.91504 69.1725 4.41113 69.417 4.87402Q69.4204 4.88086 69.4238 4.88672Q69.7887 5.57422 70.3215 6.17188C70.6801 6.57422 71.0387 6.95996 71.3973 7.3291Q71.9351 7.88281 72.3018 8.41992L72.3715 8.52734Q72.5695 8.84863 72.6356 9.16797L72.6505 9.25391L75.0645 9.25391Q75.4393 9.25391 75.6431 9.41113C75.7789 9.51562 75.8468 9.67871 75.8468 9.89844C75.8468 10.2295 75.7056 10.499 75.423 10.709C75.1405 10.918 74.695 11.0225 74.0865 11.0225L72.9293 11.0225L72.9293 21.3203C72.9293 21.6289 72.9755 21.8662 73.0679 22.0312C73.1602 22.1963 73.3096 22.2959 73.5161 22.3291L74.9178 22.5439C75.1677 22.5762 75.3524 22.6562 75.4719 22.7832C75.5914 22.9102 75.6512 23.083 75.6512 23.3037ZM87.0277 23.3037C87.0277 23.8105 86.7723 24.0645 86.2617 24.0645L77.2648 24.0645C77.0475 24.0645 76.8709 24.001 76.735 23.874C76.5992 23.7471 76.5313 23.5684 76.5313 23.3369C76.5313 23.1387 76.5775 22.9785 76.6699 22.8574C76.7622 22.7363 76.9062 22.6367 77.1018 22.5596L77.8026 22.3447Q77.9321 22.3037 78.0336 22.2266Q78.1363 22.1475 78.2101 22.0312C78.3079 21.877 78.3568 21.6562 78.3568 21.3701L78.3568 11.8164C78.3568 11.6621 78.3187 11.5322 78.2427 11.4277C78.1666 11.3232 78.0254 11.2266 77.8189 11.1387L76.8736 10.8242C76.6237 10.7031 76.4444 10.5742 76.3358 10.4365Q76.2993 10.3896 76.2711 10.3389Q76.1728 10.1631 76.1728 9.93164C76.1728 9.7334 76.2407 9.57129 76.3765 9.44434L76.4299 9.39941C76.56 9.30273 76.7296 9.25391 76.9388 9.25391L78.369 9.25391L78.3578 9.15723C78.3273 8.96484 78.2509 8.7793 78.1286 8.60156C77.9656 8.36426 77.7809 8.09766 77.5745 7.7998Q77.2648 7.35352 77.0203 6.7334Q76.7758 6.11328 76.7758 5.20508Q76.7758 3.80371 77.3896 2.7666Q77.7247 2.2002 78.2427 1.74219C79.2206 0.876953 80.6115 0.444336 82.4152 0.444336C83.5778 0.444336 84.5421 0.631836 85.3082 1.00586C86.0742 1.38086 86.6474 1.87988 87.0277 2.50195C87.408 3.125 87.5981 3.80566 87.5981 4.54395C87.5981 5.41406 87.3727 6.06738 86.9218 6.50195C86.4708 6.9375 85.8922 7.15527 85.1859 7.15527C84.4036 7.15527 83.7734 6.90137 83.2953 6.39453C82.8172 5.8877 82.5781 5.21582 82.5781 4.37793L82.5781 2.90723Q82.5781 2.3291 82.35 2.05566C82.1978 1.87402 81.9642 1.7832 81.6491 1.7832C81.2471 1.7832 80.9429 1.9209 80.7364 2.19629C80.53 2.47168 80.4267 2.86816 80.4267 3.38672C80.4267 3.91504 80.549 4.41113 80.7935 4.87402Q80.7969 4.88086 80.8003 4.88672Q81.1652 5.57422 81.698 6.17188C82.0566 6.57422 82.4152 6.95996 82.7737 7.3291Q83.3116 7.88281 83.6783 8.41992L83.748 8.52734Q83.946 8.84863 84.012 9.16797L84.0269 9.25391L86.4409 9.25391Q86.8158 9.25391 87.0195 9.41113C87.1553 9.51562 87.2233 9.67871 87.2233 9.89844C87.2233 10.2295 87.082 10.499 86.7995 10.709C86.517 10.918 86.0715 11.0225 85.463 11.0225L84.3058 11.0225L84.3058 21.3203C84.3058 21.6289 84.352 21.8662 84.4443 22.0312C84.5367 22.1963 84.6861 22.2959 84.8926 22.3291L86.2943 22.5439C86.5441 22.5762 86.7289 22.6562 86.8484 22.7832C86.9679 22.9102 87.0277 23.083 87.0277 23.3037ZM99.0235 23.585C97.9695 24.125 96.7526 24.3945 95.3726 24.3945C93.8514 24.3945 92.5149 24.0781 91.3632 23.4443C90.2114 22.8105 89.3122 21.9238 88.6657 20.7832C88.0192 19.6426 87.6959 18.3232 87.6959 16.8242C87.6959 15.249 88.0083 13.8682 88.6331 12.6836C89.2579 11.499 90.1625 10.5762 91.3468 9.91504C92.5312 9.25391 93.9546 8.92383 95.6171 8.92383C97.0297 8.92383 98.2466 9.20215 99.268 9.75879C100.289 10.3145 101.074 11.0693 101.623 12.0225Q101.851 12.4189 102.016 12.8408Q102.446 13.9385 102.446 15.2051C102.446 15.7119 102.31 16.1113 102.039 16.4033L101.974 16.4678C101.706 16.7168 101.337 16.8408 100.865 16.8408L93.4145 16.8408L93.4305 16.917C93.6282 17.8252 93.9659 18.5518 94.4436 19.0977C95.2585 20.0283 96.3451 20.4941 97.7033 20.4941C98.5726 20.4941 99.3413 20.2959 100.01 19.8984C100.678 19.502 101.126 18.9512 101.354 18.2461C101.485 18.1025 101.601 18.0059 101.705 17.957C101.808 17.9072 101.898 17.8828 101.974 17.8828C102.082 17.8828 102.175 17.9268 102.251 18.0146C102.327 18.1025 102.365 18.252 102.365 18.4609C102.365 19.541 102.071 20.5293 101.485 21.4277C100.898 22.3262 100.078 23.0449 99.0235 23.585ZM93.2444 15.5156Q93.2212 15.1357 93.2212 14.7256C93.2212 13.6895 93.2972 12.874 93.4493 12.2793C93.6015 11.6836 93.7971 11.2627 94.0361 11.0146C94.2751 10.7666 94.5414 10.6426 94.8347 10.6426C95.215 10.6426 95.5709 10.9678 95.9023 11.6182Q96.3994 12.5928 96.3994 14.8574C96.3994 15.3203 96.193 15.5518 95.7801 15.5518L93.2465 15.5518L93.2444 15.5156ZM114.605 23.585C113.551 24.125 112.334 24.3945 110.954 24.3945C109.433 24.3945 108.096 24.0781 106.945 23.4443C105.793 22.8105 104.894 21.9238 104.247 20.7832C103.601 19.6426 103.277 18.3232 103.277 16.8242C103.277 15.249 103.59 13.8682 104.215 12.6836C104.839 11.499 105.744 10.5762 106.928 9.91504C108.113 9.25391 109.536 8.92383 111.199 8.92383C112.611 8.92383 113.828 9.20215 114.849 9.75879C115.871 10.3145 116.656 11.0693 117.205 12.0225C117.753 12.9756 118.028 14.0371 118.028 15.2051C118.028 15.7119 117.892 16.1113 117.62 16.4033L117.555 16.4678C117.288 16.7168 116.918 16.8408 116.447 16.8408L108.996 16.8408L109.012 16.917C109.21 17.8252 109.547 18.5518 110.025 19.0977Q110.471 19.6074 111.026 19.9307Q111.991 20.4941 113.285 20.4941C114.154 20.4941 114.923 20.2959 115.591 19.8984C116.259 19.502 116.708 18.9512 116.936 18.2461C117.066 18.1025 117.183 18.0059 117.286 17.957C117.389 17.9072 117.479 17.8828 117.555 17.8828C117.664 17.8828 117.756 17.9268 117.832 18.0146C117.908 18.1025 117.946 18.252 117.946 18.4609C117.946 19.541 117.653 20.5293 117.066 21.4277C116.479 22.3262 115.659 23.0449 114.605 23.585ZM108.826 15.5156Q108.803 15.1357 108.803 14.7256C108.803 13.6895 108.879 12.874 109.031 12.2793C109.183 11.6836 109.379 11.2627 109.618 11.0146Q109.888 10.7344 110.203 10.665Q110.307 10.6426 110.416 10.6426C110.797 10.6426 111.152 10.9678 111.484 11.6182C111.815 12.2676 111.981 13.3477 111.981 14.8574Q111.981 15.2441 111.789 15.415Q111.636 15.5518 111.362 15.5518L108.828 15.5518L108.826 15.5156ZM128.5 23.8574C128.364 23.9951 128.166 24.0645 127.905 24.0645L119.755 24.0645C119.516 24.0645 119.329 23.998 119.193 23.8662C119.057 23.7334 118.989 23.5518 118.989 23.3203C118.989 23.1445 119.03 22.998 119.112 22.8828Q119.234 22.709 119.446 22.5596L119.821 22.4111Q119.933 22.3584 120.009 22.2734Q120.076 22.1982 120.114 22.0977C120.168 21.9541 120.195 21.7168 120.195 21.3867L120.195 12.9902C120.195 12.7256 120.166 12.5352 120.106 12.4199C120.046 12.3037 119.946 12.2129 119.804 12.1465L119.381 12.0977C119.228 12.0088 119.117 11.915 119.046 11.8164C118.976 11.7168 118.94 11.5908 118.94 11.4365C118.94 11.2598 118.995 11.1025 119.103 10.9648C119.212 10.8271 119.397 10.709 119.658 10.6094L124.286 9.27051C124.558 9.16016 124.786 9.08301 124.971 9.03906Q125.248 8.97363 125.444 8.97363C125.628 8.97363 125.767 9.03906 125.859 9.17188L125.889 9.21973C125.965 9.35742 126.018 9.5791 126.047 9.88281L126.171 12.4512L126.199 12.3555C126.254 12.1768 126.315 12.0059 126.381 11.8408C126.777 10.8545 127.302 10.1221 127.954 9.64258Q128.562 9.19531 129.24 9.02637Q129.652 8.92383 130.089 8.92383C131.023 8.92383 131.74 9.2373 132.24 9.86621C132.74 10.4941 132.99 11.4473 132.99 12.7256Q132.99 14.626 132.208 15.5186C131.686 16.1133 131.012 16.4111 130.187 16.4111Q128.998 16.4111 128.418 15.8174Q128.41 15.8086 128.402 15.7998C128.016 15.3916 127.812 14.8135 127.791 14.0645L127.774 13.4033C127.763 13.1494 127.715 12.9512 127.628 12.8076C127.541 12.665 127.399 12.5928 127.204 12.5928C127.008 12.5928 126.837 12.6953 126.69 12.8984C126.544 13.1025 126.432 13.4141 126.356 13.833Q126.242 14.4609 126.242 15.4365L126.242 21.2539C126.242 21.5625 126.291 21.8076 126.389 21.9902C126.487 22.1719 126.639 22.2842 126.845 22.3291L128.068 22.5762Q128.39 22.623 128.539 22.8086Q128.548 22.8203 128.557 22.833Q128.59 22.8799 128.616 22.9307Q128.703 23.1035 128.703 23.3203C128.703 23.541 128.635 23.7197 128.5 23.8574ZM145.793 23.3535C144.57 24.0254 143.149 24.3613 141.53 24.3613C139.955 24.3613 138.572 24.0342 137.382 23.3779Q136.376 22.8242 135.621 22.0303Q135.037 21.416 134.604 20.6592Q134.571 20.6025 134.54 20.5459Q133.609 18.8496 133.609 16.6426C133.609 15.1885 133.957 13.8799 134.652 12.7168C135.348 11.5547 136.309 10.6318 137.537 9.94824Q137.577 9.92578 137.618 9.9043Q139.431 8.92383 141.775 8.92383C143.361 8.92383 144.747 9.25391 145.931 9.91504C147.115 10.5762 148.039 11.4912 148.702 12.6592Q148.727 12.7041 148.752 12.749Q149.696 14.4697 149.696 16.709C149.696 18.1631 149.351 19.4668 148.661 20.6182C147.971 21.7695 147.015 22.6816 145.793 23.3535ZM142.769 22.6426C142.432 22.709 142.104 22.5596 141.783 22.1963C141.463 21.833 141.158 21.2217 140.87 20.3613Q140.438 19.0723 140.047 16.9736C139.797 15.5742 139.656 14.4219 139.624 13.5186Q139.615 13.293 139.615 13.085C139.615 12.3936 139.683 11.8545 139.819 11.4688C139.982 11.0059 140.232 10.7363 140.569 10.6592C140.906 10.5928 141.234 10.7422 141.555 11.1055C141.875 11.4688 142.182 12.0811 142.476 12.9404Q142.916 14.2295 143.307 16.3291C143.568 17.7285 143.712 18.8828 143.739 19.791C143.743 19.918 143.745 20.04 143.745 20.1572C143.745 20.8867 143.672 21.4512 143.527 21.8496C143.359 22.3125 143.106 22.5762 142.769 22.6426ZM164.87 23.8906C164.283 24.2266 163.534 24.3945 162.621 24.3945C161.523 24.3945 160.673 24.1602 160.07 23.6924L159.967 23.6084C159.633 23.3252 159.404 23.0059 159.278 22.6484L159.254 22.5742L159.232 22.6025C158.835 23.0938 158.318 23.4902 157.682 23.791C156.835 24.1934 155.922 24.3945 154.944 24.3945Q153.185 24.3945 152.053 23.5527Q151.926 23.458 151.807 23.3535C151.019 22.6592 150.625 21.7725 150.625 20.6924C150.625 19.2705 151.198 18.1631 152.345 17.3701C153.491 16.5762 155.232 16.1797 157.568 16.1797L157.744 16.1816C158.089 16.1885 158.393 16.2178 158.655 16.2686L158.741 16.2871L158.742 11.4688C158.742 11.083 158.652 10.7773 158.473 10.5518C158.294 10.3262 158.052 10.2129 157.748 10.2129C157.465 10.2129 157.229 10.2979 157.039 10.4688C156.849 10.6396 156.753 10.8799 156.753 11.1885L156.753 12.4443Q156.753 13.2256 156.421 13.8213Q156.233 14.1582 155.938 14.4365C155.395 14.9482 154.651 15.2051 153.706 15.2051Q152.548 15.2051 151.937 14.6514C151.53 14.2822 151.326 13.7441 151.326 13.0391Q151.326 12.9795 151.329 12.9199Q151.376 11.9902 152.149 11.0977C152.698 10.4639 153.518 9.94336 154.61 9.53516C155.702 9.12793 157.063 8.92383 158.693 8.92383Q161.839 8.92383 163.314 10.1221C164.297 10.9209 164.789 12.0479 164.789 13.502L164.789 20.8076C164.789 21.0176 164.835 21.1855 164.927 21.3125C165.02 21.4385 165.158 21.502 165.343 21.502Q165.41 21.502 165.474 21.4883Q165.597 21.4629 165.71 21.3867C165.824 21.3096 165.908 21.1719 165.962 20.9736C165.995 20.9287 166.033 20.8965 166.076 20.874C166.12 20.8516 166.169 20.8408 166.223 20.8408Q166.295 20.8408 166.355 20.8682Q166.445 20.9072 166.508 21.0059C166.579 21.1162 166.614 21.2539 166.614 21.4199C166.614 21.8057 166.47 22.2295 166.182 22.6924C165.894 23.1553 165.457 23.5547 164.87 23.8906ZM158.057 21.8164C157.623 21.8164 157.272 21.6367 157.006 21.2793C156.74 20.9209 156.607 20.373 156.607 19.6348C156.607 18.8633 156.734 18.2793 156.99 17.8828C157.245 17.4854 157.585 17.2871 158.008 17.2871C158.258 17.2871 158.476 17.3125 158.66 17.3613L158.741 17.3867L158.741 21.6279L158.688 21.6582C158.515 21.748 158.336 21.7998 158.151 21.8135L158.057 21.8164ZM178.561 23.1055C177.529 23.998 176.046 24.4443 174.112 24.4443Q173.134 24.4443 172.49 24.2627C172.061 24.1416 171.713 24.0205 171.447 23.8984C171.18 23.7773 170.966 23.7168 170.803 23.7168C170.64 23.7168 170.425 23.7773 170.159 23.8984L169.36 24.2627Q168.961 24.4443 168.684 24.4443C168.521 24.4443 168.369 24.3896 168.228 24.2793C168.086 24.1689 167.978 23.9482 167.902 23.6182L167.396 20.3291C167.338 20.0771 167.308 19.8496 167.308 19.6465C167.308 19.5107 167.321 19.3857 167.348 19.2705C167.413 18.9844 167.559 18.7969 167.788 18.709C168.027 18.5986 168.263 18.5928 168.497 18.6924C168.73 18.791 168.939 18.9678 169.124 19.2217C169.743 20.1797 170.303 20.9346 170.803 21.4854C171.303 22.0371 171.789 22.4248 172.262 22.6514C172.734 22.877 173.231 22.9902 173.753 22.9902C174.307 22.9902 174.72 22.8574 174.992 22.5928C175.263 22.3291 175.399 21.9922 175.399 21.585C175.399 21.2764 175.32 20.9951 175.163 20.7422C175.005 20.4883 174.717 20.2539 174.299 20.0391C173.881 19.8242 173.28 19.6123 172.498 19.4033C171.292 19.0947 170.292 18.6924 169.499 18.1963C168.706 17.7002 168.116 17.1055 167.731 16.4111C167.345 15.7168 167.152 14.9072 167.152 13.9814C167.152 12.9346 167.41 12.0342 167.926 11.2793C168.442 10.5244 169.149 9.94336 170.045 9.53516Q171.39 8.92383 173.068 8.92383C173.742 8.92383 174.291 8.99023 174.715 9.12207C175.138 9.25391 175.467 9.38672 175.701 9.51855C175.934 9.65137 176.111 9.7168 176.23 9.7168C176.361 9.7168 176.554 9.65332 176.809 9.52734C177.064 9.40039 177.322 9.27637 177.583 9.15527Q177.974 8.97363 178.235 8.97363C178.431 8.97363 178.588 9.03906 178.708 9.17188C178.827 9.30371 178.909 9.5293 178.952 9.84961L179.376 12.8906C179.42 13.1475 179.443 13.3701 179.443 13.5576C179.443 13.6924 179.431 13.8086 179.409 13.9072C179.354 14.1445 179.213 14.2959 178.985 14.3613Q178.953 14.3691 178.92 14.374Q178.672 14.4072 178.398 14.2539C178.192 14.1387 177.985 13.9541 177.779 13.7002C176.985 12.499 176.26 11.6514 175.603 11.1553C174.945 10.6592 174.247 10.4111 173.508 10.4111Q172.71 10.4111 172.302 10.7588C172.031 10.9902 171.895 11.293 171.895 11.667C171.895 11.9209 171.955 12.1582 172.074 12.3779Q172.253 12.709 172.734 12.998C173.055 13.1904 173.508 13.3809 174.095 13.5684C175.671 14.0527 176.893 14.5684 177.762 15.1133C178.632 15.6592 179.24 16.2842 179.588 16.9902C179.936 17.6953 180.109 18.5156 180.109 19.4521C180.109 20.9951 179.593 22.2129 178.561 23.1055ZM189.563 23.8242Q188.487 24.3945 187.02 24.3945C185.368 24.3945 184.127 23.9922 183.296 23.1885C182.465 22.3838 182.049 21.1162 182.049 19.3867L182.049 11.915C182.049 11.6836 182.027 11.5078 181.984 11.3867C181.94 11.2656 181.832 11.166 181.658 11.0889L180.892 10.8408C180.707 10.7529 180.588 10.6455 180.533 10.5186C180.479 10.3916 180.452 10.2354 180.452 10.0479C180.452 9.81641 180.533 9.62598 180.696 9.47754C180.859 9.3291 181.06 9.25391 181.299 9.25391L182.098 9.25391Q182.245 9.25391 182.408 9.13867C182.516 9.06152 182.663 8.90723 182.848 8.67578L185.863 6.14648Q186.189 5.75 186.515 5.54395Q186.841 5.33691 187.167 5.33691C187.417 5.33691 187.612 5.41406 187.753 5.56836L187.798 5.62305C187.91 5.77734 187.965 6.00195 187.965 6.2959L187.965 9.25391L191.372 9.25391C191.611 9.25391 191.796 9.30664 191.926 9.41113C192.056 9.51562 192.122 9.67871 192.122 9.89844C192.122 10.207 191.986 10.4717 191.714 10.6924L191.653 10.7383C191.38 10.9277 190.965 11.0225 190.41 11.0225L187.965 11.0225L187.965 18.5596C187.965 19.3867 188.104 19.998 188.381 20.3945C188.658 20.791 189.063 20.9902 189.595 20.9902C189.823 20.9902 190.035 20.9404 190.231 20.8408C190.427 20.7422 190.603 20.6123 190.761 20.4521C190.918 20.293 191.068 20.1133 191.209 19.915C191.35 19.7168 191.486 19.5186 191.616 19.3203C191.725 19.2764 191.82 19.2959 191.901 19.3779C191.973 19.4512 192.009 19.5908 192.009 19.7969C192.009 19.8242 192.009 19.8525 192.007 19.8828C191.931 20.7754 191.684 21.5596 191.266 22.2373C190.848 22.915 190.28 23.4443 189.563 23.8242ZM203.889 23.585C202.835 24.125 201.618 24.3945 200.238 24.3945C198.717 24.3945 197.381 24.0781 196.229 23.4443C195.077 22.8105 194.178 21.9238 193.531 20.7832C192.885 19.6426 192.562 18.3232 192.562 16.8242Q192.562 14.4609 193.499 12.6836C194.124 11.499 195.028 10.5762 196.213 9.91504Q197.989 8.92383 200.483 8.92383C201.895 8.92383 203.112 9.20215 204.134 9.75879Q205.188 10.333 205.906 11.1885Q206.232 11.5771 206.489 12.0225C207.038 12.9756 207.312 14.0371 207.312 15.2051C207.312 15.7119 207.176 16.1113 206.904 16.4033L206.84 16.4678C206.572 16.7168 206.202 16.8408 205.731 16.8408L198.28 16.8408L198.296 16.917C198.494 17.8252 198.832 18.5518 199.309 19.0977Q199.755 19.6074 200.31 19.9307Q201.275 20.4941 202.569 20.4941C203.438 20.4941 204.207 20.2959 204.875 19.8984C205.543 19.502 205.992 18.9512 206.22 18.2461C206.35 18.1025 206.467 18.0059 206.57 17.957C206.674 17.9072 206.763 17.8828 206.839 17.8828C206.948 17.8828 207.04 17.9268 207.116 18.0146C207.192 18.1025 207.23 18.252 207.23 18.4609C207.23 19.541 206.937 20.5293 206.35 21.4277C205.764 22.3262 204.943 23.0449 203.889 23.585ZM198.11 15.5156Q198.087 15.1357 198.087 14.7256C198.087 13.6895 198.163 12.874 198.315 12.2793C198.467 11.6836 198.663 11.2627 198.902 11.0146C199.141 10.7666 199.407 10.6426 199.7 10.6426C200.081 10.6426 200.437 10.9678 200.768 11.6182C201.099 12.2676 201.265 13.3477 201.265 14.8574C201.265 15.3203 201.059 15.5518 200.646 15.5518L198.112 15.5518L198.11 15.5156ZM217.784 23.8574C217.648 23.9951 217.45 24.0645 217.189 24.0645L209.04 24.0645C208.801 24.0645 208.613 23.998 208.477 23.8662C208.341 23.7334 208.273 23.5518 208.273 23.3203C208.273 23.1445 208.314 22.998 208.396 22.8828Q208.518 22.709 208.73 22.5596L209.105 22.4111Q209.217 22.3584 209.293 22.2734Q209.36 22.1982 209.398 22.0977C209.452 21.9541 209.48 21.7168 209.48 21.3867L209.48 12.9902C209.48 12.7256 209.45 12.5352 209.39 12.4199Q209.381 12.4033 209.372 12.3867Q209.28 12.2363 209.088 12.1465L208.665 12.0977C208.513 12.0088 208.401 11.915 208.331 11.8164C208.26 11.7168 208.225 11.5908 208.225 11.4365C208.225 11.2598 208.279 11.1025 208.388 10.9648C208.496 10.8271 208.681 10.709 208.942 10.6094L213.571 9.27051Q213.978 9.10547 214.255 9.03906C214.44 8.99512 214.597 8.97363 214.728 8.97363C214.913 8.97363 215.051 9.03906 215.143 9.17188L215.173 9.21973C215.249 9.35742 215.302 9.5791 215.331 9.88281L215.455 12.4512L215.483 12.3555C215.538 12.1768 215.599 12.0059 215.665 11.8408Q216.26 10.3613 217.238 9.64258C217.89 9.16309 218.601 8.92383 219.373 8.92383C220.307 8.92383 221.025 9.2373 221.524 9.86621C222.024 10.4941 222.274 11.4473 222.274 12.7256C222.274 13.9922 222.013 14.9238 221.492 15.5186C220.97 16.1133 220.297 16.4111 219.471 16.4111C218.667 16.4111 218.072 16.207 217.686 15.7998C217.3 15.3916 217.097 14.8135 217.075 14.0645L217.058 13.4033C217.048 13.1494 216.999 12.9512 216.912 12.8076C216.825 12.665 216.684 12.5928 216.488 12.5928C216.292 12.5928 216.121 12.6953 215.975 12.8984C215.828 13.1025 215.717 13.4141 215.641 13.833C215.564 14.252 215.526 14.7861 215.526 15.4365L215.526 21.2539C215.526 21.5625 215.575 21.8076 215.673 21.9902C215.771 22.1719 215.923 22.2842 216.13 22.3291L217.352 22.5762C217.58 22.6094 217.743 22.6953 217.841 22.833C217.939 22.9707 217.988 23.1328 217.988 23.3203C217.988 23.541 217.92 23.7197 217.784 23.8574ZM234.351 23.1055C233.319 23.998 231.836 24.4443 229.902 24.4443Q228.924 24.4443 228.28 24.2627C227.851 24.1416 227.503 24.0205 227.237 23.8984C226.971 23.7773 226.756 23.7168 226.593 23.7168C226.43 23.7168 226.216 23.7773 225.949 23.8984L225.151 24.2627Q224.751 24.4443 224.474 24.4443C224.311 24.4443 224.159 24.3896 224.018 24.2793C223.877 24.1689 223.768 23.9482 223.692 23.6182L223.187 20.3291C223.128 20.0771 223.099 19.8496 223.099 19.6465C223.099 19.5107 223.112 19.3857 223.138 19.2705C223.203 18.9844 223.35 18.7969 223.578 18.709C223.817 18.5986 224.053 18.5928 224.287 18.6924C224.521 18.791 224.73 18.9678 224.914 19.2217C225.534 20.1797 226.093 20.9346 226.593 21.4854C227.093 22.0371 227.579 22.4248 228.052 22.6514C228.525 22.877 229.022 22.9902 229.543 22.9902C230.097 22.9902 230.51 22.8574 230.782 22.5928C231.054 22.3291 231.189 21.9922 231.189 21.585C231.189 21.2764 231.111 20.9951 230.953 20.7422C230.796 20.4883 230.508 20.2539 230.089 20.0391C229.671 19.8242 229.071 19.6123 228.288 19.4033C227.082 19.0947 226.083 18.6924 225.289 18.1963C224.496 17.7002 223.907 17.1055 223.521 16.4111C223.135 15.7168 222.942 14.9072 222.942 13.9814C222.942 12.9346 223.2 12.0342 223.717 11.2793C224.233 10.5244 224.939 9.94336 225.835 9.53516Q227.18 8.92383 228.859 8.92383C229.532 8.92383 230.081 8.99023 230.505 9.12207C230.929 9.25391 231.257 9.38672 231.491 9.51855C231.725 9.65137 231.901 9.7168 232.021 9.7168C232.151 9.7168 232.344 9.65332 232.599 9.52734C232.855 9.40039 233.113 9.27637 233.373 9.15527Q233.765 8.97363 234.025 8.97363C234.221 8.97363 234.379 9.03906 234.498 9.17188C234.618 9.30371 234.699 9.5293 234.743 9.84961L235.166 12.8906C235.211 13.1475 235.233 13.3701 235.233 13.5576C235.233 13.6924 235.222 13.8086 235.199 13.9072C235.145 14.1445 235.003 14.2959 234.775 14.3613Q234.743 14.3691 234.71 14.374Q234.462 14.4072 234.188 14.2539C233.982 14.1387 233.776 13.9541 233.569 13.7002C232.776 12.499 232.051 11.6514 231.393 11.1553C230.736 10.6592 230.038 10.4111 229.299 10.4111Q228.5 10.4111 228.093 10.7588C227.821 10.9902 227.685 11.293 227.685 11.667C227.685 11.9209 227.745 12.1582 227.865 12.3779Q228.044 12.709 228.525 12.998C228.845 13.1904 229.299 13.3809 229.886 13.5684C231.461 14.0527 232.684 14.5684 233.553 15.1133C234.422 15.6592 235.031 16.2842 235.378 16.9902C235.726 17.6953 235.9 18.5156 235.9 19.4521C235.9 20.9951 235.384 22.2129 234.351 23.1055Z" clip-rule="evenodd" fill="#333D4B" fill-opacity="1.000000" fill-rule="evenodd"/>
	<path id="Combined Shape" d="M14.3892 4.44727C10.8747 0.935547 5.66534 0.429688 2.77637 3.32227C-0.114014 6.21289 0.391418 11.4219 3.89984 14.9355C4.83582 15.8711 5.91431 16.5869 7.0528 17.0996C7.42627 14.9287 8.49725 12.8428 10.1232 11.1299C9.58472 10.9375 9.03278 10.7754 8.45679 10.6182C5.04584 9.68164 3.35089 6.83691 2.9549 3.50098C3.91785 4.6582 4.62732 5.9834 5.80634 6.95312C7.06329 7.98828 8.44775 8.36328 9.96722 8.80469C10.6557 9.00391 11.2542 9.2998 11.8032 9.64453C13.2462 8.58984 14.8736 7.8877 16.5536 7.59863C16.0421 6.45996 15.3251 5.38281 14.3892 4.44727ZM8.44629 17.9326C8.66974 15.7598 9.72272 13.6338 11.4102 11.9463C14.9246 8.43457 20.134 7.92773 23.0229 10.8213C25.9134 13.7119 25.4094 18.9219 21.8965 22.4346C20.209 24.1221 18.0836 25.1748 15.9101 25.4004C15.6206 25.4287 15.3341 25.4434 15.0536 25.4434C13.1846 25.4434 11.5152 24.7881 10.2852 23.5576C8.86926 22.1436 8.21527 20.1455 8.44629 17.9326ZM17.3411 18.1191C15.9851 18.4893 14.7386 18.8379 13.5867 19.7168C12.2697 20.7227 11.5047 22.127 10.4622 23.3799C10.8432 20.0957 12.4932 17.2744 15.8306 16.3057C17.3516 15.8643 18.7346 15.4883 19.9915 14.4541C21.172 13.4844 21.8815 12.1611 22.843 11.001C22.4454 14.3379 20.752 17.1826 17.3411 18.1191Z" clip-rule="evenodd" fill="#0E8784" fill-opacity="1.000000" fill-rule="evenodd"/>
</svg>
